# Blender v2.91.0 OBJ File: 'Rocks7.blend'
# www.blender.org
mtllib Rock_02_LP.mtl
o Rock_02_LP_Cube.003
v -0.604845 -0.848909 -0.224403
v 0.300919 -0.769995 0.931941
v -0.379306 -0.649373 0.968640
v -0.133908 0.960841 -0.377706
v 0.350016 0.838694 -0.468393
v 0.698342 0.220145 -0.813464
v 0.568663 -0.115437 -0.850268
v 1.130190 -0.665146 -0.164105
v 1.080559 -0.578337 -0.429255
v 0.724368 -0.373687 -0.777365
v 0.579796 0.891460 -0.338397
v 0.899587 0.303840 0.517177
v 0.937515 0.141652 0.596536
v 0.512711 0.333814 0.880504
v -0.034110 0.348039 0.856163
v -0.672807 0.476352 -0.588449
v -0.574314 -0.456766 -0.667187
v -0.648522 0.007140 -0.746606
v -0.541968 0.534302 -0.675610
v 0.096266 -0.125991 -0.927687
v 0.287444 0.736236 -0.631693
v 1.089962 -0.212998 -0.644805
v 1.272846 -0.414440 -0.122062
v 1.235026 -0.507979 0.072965
v 0.801580 0.501062 0.383643
v 0.982263 -0.312672 0.755850
v 0.866618 0.025741 0.819675
v 0.661558 -0.484886 1.095326
v 0.479994 -0.405060 1.260593
v -0.071326 -0.872668 -0.634990
v 0.085615 -0.981507 -0.484962
v 0.635727 -0.609072 -0.702151
v 0.382786 -0.949355 -0.463018
v 0.196190 -1.131673 -0.135495
v -0.022061 -1.035127 0.391610
v 0.638947 -1.001631 0.384559
v 0.794432 -0.874088 0.532501
v 0.726896 -0.787677 0.724095
v -0.082010 0.931352 0.041204
v 0.382320 0.963902 0.159234
v 0.132690 0.529840 0.711221
v -0.518094 -0.992693 -0.097381
v -0.373647 -0.987057 0.364568
v -0.209026 -0.880682 0.651776
v 0.147823 -0.686559 1.083064
v 0.026092 -0.402927 1.177738
v -0.374520 -0.227619 1.115037
v -0.368990 0.078040 1.027347
v -0.303619 0.275209 0.854567
v -0.786253 0.406769 0.041677
v -0.765689 0.427797 -0.331039
v -0.896983 -0.300888 -0.389335
v 0.340226 -0.476040 -0.812542
v -0.054569 -0.675777 -0.792818
v -0.204245 -0.802862 -0.664262
v -0.526998 -0.747944 -0.507453
v -0.639618 -0.725303 -0.426126
v 0.748121 0.418320 -0.729011
v 1.089826 -0.673933 0.182622
v 1.107139 -0.732638 -0.020663
v 1.032510 -0.866984 -0.011051
v 1.155483 -0.236397 0.248084
v 0.590927 -0.686824 0.893964
v 0.873832 -0.638516 0.779160
v 1.134084 -0.591696 0.446090
v 0.698344 0.434214 0.632184
v 0.342707 0.374419 0.894767
v 0.254461 0.208801 1.083571
v 0.120319 0.359863 0.924386
v -0.201770 0.263071 0.957761
v -0.558885 -0.361071 1.047683
v -0.521377 -0.091203 0.969019
v -0.509683 0.169392 0.870013
v -0.635899 -0.103046 0.835834
v -0.512280 -0.782707 0.638632
v -0.917700 -0.412707 0.532459
v -0.973328 -0.039770 0.407908
v -0.825799 0.237918 0.313657
v -0.694398 -0.822984 0.279300
v -0.915871 -0.556648 0.278509
v -0.991227 -0.401501 -0.024292
v -1.008371 -0.124341 -0.078857
v -0.882722 -0.523585 -0.166631
v -0.875418 0.266120 -0.393528
v -0.705990 0.123043 0.697315
v -0.711100 -0.836393 -0.044144
v -0.773979 0.101411 -0.643106
v -0.242419 -0.492887 -0.773505
v -0.429836 0.012111 -0.849523
v -0.271753 0.413853 -0.837159
v -0.028557 -0.335198 -0.905739
v 0.036447 0.173373 -0.896056
v -0.152894 0.765567 -0.644968
v 0.363873 0.479352 -0.781532
v -0.759917 -0.374695 -0.538902
v 0.780886 -0.023415 -0.786014
v 0.785206 0.661922 -0.359166
v 1.110819 0.162294 -0.544599
v 1.175843 -0.135386 -0.542898
v 1.062262 -0.432450 -0.525117
v 0.908763 0.557644 -0.285659
v 1.173642 -0.022897 -0.345365
v 1.116934 0.259004 -0.291463
v 1.152631 -0.329326 -0.379702
v 1.189142 0.063477 -0.216156
v 0.853134 0.698092 0.024657
v 1.237877 -0.572016 -0.068922
v 1.232714 -0.223748 -0.179962
v 1.076592 0.208745 0.076051
v 1.228723 -0.194001 0.083264
v 0.906805 0.356506 -0.608898
v 0.747252 0.752721 -0.426626
v 0.797749 0.761989 -0.175748
v 0.812507 0.682532 0.194958
v 1.106068 -0.201742 0.577819
v 1.011927 -0.546735 0.723029
v 0.651851 0.078062 0.989121
v 0.656525 -0.218245 1.103847
v 0.395872 0.142875 1.137243
v 0.328609 -0.081297 1.287571
v 0.175560 -0.074579 1.335160
v 1.145378 -0.508027 0.359003
v 0.761409 0.247674 0.800017
v -0.064679 0.072955 1.154010
v 0.003793 -0.083016 1.282683
v -0.155748 -1.004679 -0.377148
v 0.832278 -0.824328 -0.451407
v -0.073082 -1.115402 -0.022710
v 0.525602 -1.104726 0.047081
v 0.726020 -1.051629 0.002810
v 0.867402 -0.926899 -0.111206
v 0.341846 -1.073640 0.249197
v 0.888673 -0.962617 0.112791
v 0.816755 -1.001950 0.320820
v 0.323213 -0.979002 0.537155
v 0.982198 -0.968694 0.275768
v 0.973028 -0.841536 0.129537
v 1.027483 -0.885695 0.344399
v 1.061365 -0.653573 0.360602
v 0.289534 -0.710060 -0.747639
v 1.118452 -0.761701 0.508655
v 0.355154 -0.893773 0.748400
v -0.294940 -1.027017 -0.007844
v -0.328232 -1.018021 -0.189776
v -0.431425 -0.875075 -0.370066
v 0.400797 0.991830 -0.152938
v 0.175034 0.974264 0.066025
v -0.328288 0.764672 0.081774
v 0.528749 0.819638 0.333878
v 0.241618 0.911823 0.292030
v 0.475495 0.677866 0.525645
v 0.067083 0.696632 0.514032
v -0.209961 0.555509 0.522696
v 0.356211 0.520374 0.741101
v -0.478179 0.746729 -0.369042
v -0.634013 0.534098 0.166571
v -0.382759 0.510455 0.562193
v 0.708740 0.854599 -0.248974
vt 0.260617 0.207928
vt 0.285945 0.259818
vt 0.204835 0.315794
vt 0.195521 0.222170
vt 0.197020 0.161976
vt 0.296613 0.359867
vt 0.227588 0.379583
vt 0.290573 0.313492
vt 0.130129 0.260075
vt 0.154136 0.319685
vt 0.066232 0.281082
vt 0.259934 0.492616
vt 0.150192 0.434668
vt 0.262648 0.427428
vt 0.730541 0.917869
vt 0.686458 0.852558
vt 0.766277 0.891350
vt 0.611286 0.798557
vt 0.687828 0.790841
vt 0.640093 0.854895
vt 0.313996 0.294555
vt 0.324226 0.251527
vt 0.336748 0.336776
vt 0.354523 0.300913
vt 0.377959 0.343711
vt 0.310501 0.488995
vt 0.622588 0.668138
vt 0.664840 0.647418
vt 0.639058 0.700928
vt 0.692544 0.704245
vt 0.766466 0.843117
vt 0.783797 0.932750
vt 0.134692 0.188692
vt 0.727328 0.781479
vt 0.724518 0.703326
vt 0.770964 0.773220
vt 0.759554 0.679237
vt 0.835509 0.750408
vt 0.681480 0.625506
vt 0.864446 0.694454
vt 0.735037 0.607638
vt 0.812302 0.596307
vt 0.383864 0.751287
vt 0.336251 0.705132
vt 0.369348 0.610347
vt 0.638325 0.523116
vt 0.689551 0.550271
vt 0.703115 0.445448
vt 0.464798 0.724566
vt 0.461510 0.842990
vt 0.409745 0.781001
vt 0.338212 0.748593
vt 0.887980 0.770033
vt 0.862428 0.813109
vt 0.792007 0.833805
vt 0.281951 0.720876
vt 0.290025 0.789293
vt 0.249224 0.786597
vt 0.338832 0.823328
vt 0.385189 0.808820
vt 0.293094 0.812752
vt 0.347660 0.868515
vt 0.300616 0.848013
vt 0.253030 0.820964
vt 0.219443 0.790104
vt 0.255107 0.864614
vt 0.460982 0.891956
vt 0.445927 0.935148
vt 0.415243 0.871620
vt 0.180059 0.824309
vt 0.219577 0.859777
vt 0.189441 0.854883
vt 0.308451 0.874038
vt 0.327551 0.940853
vt 0.540918 0.186280
vt 0.573813 0.169724
vt 0.608351 0.279638
vt 0.239144 0.915646
vt 0.184429 0.883896
vt 0.626089 0.175797
vt 0.669935 0.202598
vt 0.483217 0.873063
vt 0.700621 0.221164
vt 0.151194 0.838905
vt 0.124385 0.820735
vt 0.239346 0.699599
vt 0.748111 0.207669
vt 0.779075 0.264964
vt 0.738191 0.281273
vt 0.804939 0.298137
vt 0.824816 0.191736
vt 0.722030 0.170264
vt 0.773694 0.162529
vt 0.857339 0.225780
vt 0.732811 0.116966
vt 0.801515 0.110808
vt 0.854631 0.123596
vt 0.878008 0.186209
vt 0.795146 0.076578
vt 0.876725 0.096348
vt 0.754640 0.348266
vt 0.777422 0.343178
vt 0.697818 0.328974
vt 0.676001 0.150562
vt 0.477006 0.273580
vt 0.461682 0.324971
vt 0.405046 0.265131
vt 0.394774 0.322782
vt 0.401877 0.223083
vt 0.355294 0.168709
vt 0.309936 0.112365
vt 0.886453 0.270089
vt 0.835342 0.294301
vt 0.872063 0.888036
vt 0.829004 0.922250
vt 0.810100 0.872066
vt 0.880294 0.970354
vt 0.828012 0.962771
vt 0.153910 0.652882
vt 0.064366 0.627814
vt 0.146391 0.586392
vt 0.049173 0.124104
vt 0.140658 0.116950
vt 0.054925 0.177016
vt 0.910691 0.459886
vt 0.953296 0.420277
vt 0.974519 0.506976
vt 0.073964 0.755156
vt 0.893020 0.387407
vt 0.866518 0.463892
vt 0.858218 0.397848
vt 0.833295 0.432929
vt 0.821947 0.479775
vt 0.802614 0.423379
vt 0.787615 0.452969
vt 0.828954 0.399087
vt 0.861592 0.352223
vt 0.817503 0.383085
vt 0.805228 0.349226
vt 0.780907 0.365400
vt 0.230215 0.628648
vt 0.188410 0.548836
vt 0.278683 0.644834
vt 0.181471 0.741717
vt 0.117979 0.776863
vt 0.133397 0.878698
vt 0.870030 0.312258
vt 0.183408 0.047079
vt 0.233777 0.048081
vt 0.040250 0.229899
vt 0.560732 0.496919
vt 0.570368 0.440211
vt 0.626716 0.592160
vt 0.520588 0.642691
vt 0.539506 0.558880
vt 0.447903 0.548261
vt 0.408172 0.424137
vt 0.470941 0.434612
vt 0.387736 0.526743
vt 0.372889 0.415938
vt 0.536875 0.068779
vt 0.568717 0.038514
vt 0.583261 0.100797
vt 0.532324 0.804529
vt 0.503490 0.851728
vt 0.548363 0.684452
vt 0.431692 0.340951
vt 0.508583 0.321119
vt 0.633157 0.094282
vt 0.563511 0.947156
vt 0.118509 0.381887
vt 0.328267 0.571630
vt 0.862297 0.641452
vt 0.797707 0.495193
vt 0.733039 0.476274
vt 0.435409 0.626309
vt 0.246838 0.554313
vt 0.521435 0.762285
vt 0.443652 0.855196
vt 0.666199 0.351272
vt 0.715419 0.395873
vt 0.766709 0.397275
vt 0.947533 0.257746
vt 0.968717 0.212496
vt 0.956673 0.138593
vt 0.433820 0.202719
vt 0.737103 0.081001
vt 0.892769 0.825494
vt 0.926278 0.867970
vt 0.943242 0.954102
vt 0.027613 0.062563
vt 0.116260 0.035637
vt 0.957021 0.354325
vt 0.946693 0.306674
vt 0.279668 0.070466
vt 0.552510 0.881152
vt 0.633044 0.406976
vt 0.520355 0.364970
vt 0.475088 0.379542
vt 0.605323 0.922599
vt 0.517653 0.022746
vt 0.504144 0.544234
vt 0.517034 0.493341
vt 0.691587 0.075915
vn -0.3773 -0.6203 0.6876
vn -0.5685 -0.1602 0.8069
vn -0.8773 -0.2752 0.3930
vn -0.5061 -0.7333 0.4539
vn -0.1809 -0.8647 0.4686
vn -0.7102 0.4252 0.5610
vn -0.9286 0.2369 0.2853
vn -0.7317 0.2549 0.6321
vn -0.6434 -0.7310 0.2272
vn -0.8794 -0.4516 0.1503
vn -0.7307 -0.6669 -0.1458
vn -0.8172 0.5647 0.1148
vn -0.9889 0.1091 -0.1009
vn -0.8036 0.5381 0.2541
vn -0.8230 -0.4848 -0.2960
vn -0.6004 -0.7036 -0.3800
vn -0.8697 -0.2065 -0.4483
vn -0.9543 -0.2842 -0.0926
vn -0.6416 0.2790 0.7145
vn -0.3985 0.0314 0.9166
vn -0.5414 0.5259 0.6560
vn -0.4670 0.4218 0.7772
vn -0.3048 0.7463 0.5917
vn -0.6313 0.7268 0.2706
vn -0.7804 0.6207 -0.0746
vn -0.7175 0.5108 -0.4735
vn -0.9100 0.3376 -0.2405
vn -0.7538 0.0780 -0.6525
vn -0.6443 -0.5990 -0.4754
vn -0.4309 -0.8812 -0.1943
vn -0.3040 -0.9147 0.2662
vn -0.7147 -0.3015 -0.6311
vn -0.5495 -0.0346 -0.8347
vn -0.4994 -0.3487 -0.7931
vn -0.3238 -0.0117 -0.9460
vn -0.3485 -0.2980 -0.8886
vn -0.4944 0.5241 -0.6934
vn -0.0984 -0.2120 -0.9723
vn -0.1881 0.3177 -0.9293
vn 0.0027 0.1704 -0.9854
vn 0.3720 0.1717 -0.9122
vn 0.2182 -0.0721 -0.9732
vn 0.0385 -0.0289 -0.9988
vn -0.2446 0.9333 -0.2627
vn -0.1376 0.6896 -0.7110
vn 0.1467 0.8285 -0.5404
vn 0.1440 0.4346 -0.8890
vn 0.6425 0.6180 -0.4530
vn 0.4407 0.4360 -0.7846
vn 0.4170 0.0216 -0.9086
vn -0.1372 -0.4364 -0.8892
vn -0.3343 -0.6187 -0.7110
vn -0.4876 -0.6360 -0.5981
vn 0.3383 -0.2707 -0.9012
vn 0.6418 -0.1642 -0.7491
vn 0.7000 -0.3734 -0.6087
vn 0.7943 0.3366 -0.5058
vn 0.6722 0.4248 -0.6063
vn 0.9119 -0.0134 -0.4101
vn 0.8993 0.4320 -0.0680
vn 0.9696 0.1930 -0.1500
vn 0.9095 -0.2568 -0.3267
vn 0.7592 -0.4192 -0.4977
vn 0.9830 0.1335 -0.1263
vn 0.7477 0.6633 -0.0312
vn 0.7468 0.6519 0.1311
vn 0.7768 0.5791 -0.2474
vn 0.7658 -0.5523 -0.3294
vn 0.9821 -0.1237 -0.1417
vn 0.9057 -0.4115 -0.1020
vn 0.9704 0.2414 0.0075
vn 0.9020 0.3656 0.2297
vn 0.6925 0.6259 0.3586
vn 0.9491 0.2100 0.2348
vn 0.9522 -0.2259 0.2055
vn 0.7086 0.5605 0.4285
vn 0.7906 0.4987 0.3552
vn 0.5902 0.8044 -0.0668
vn 0.8482 0.3786 0.3704
vn 0.8441 -0.5325 0.0623
vn 0.6119 -0.7909 -0.0042
vn 0.3159 -0.4879 -0.8137
vn 0.7420 0.2969 0.6010
vn 0.7677 0.0593 0.6381
vn 0.9165 0.2059 0.3429
vn 0.7473 -0.1948 0.6352
vn 0.6497 0.1474 0.7457
vn 0.6057 0.5283 0.5949
vn 0.5633 0.4011 0.7223
vn 0.5510 -0.4068 0.7286
vn 0.3534 0.6568 0.6660
vn 0.3111 0.5866 0.7477
vn 0.3901 0.2736 0.8791
vn 0.3172 -0.2975 0.9005
vn 0.0052 0.7055 0.7086
vn -0.0590 0.1961 0.9788
vn 0.9729 -0.1857 0.1378
vn 0.9816 -0.1749 -0.0766
vn 0.9400 0.1743 0.2933
vn 0.5486 0.6650 0.5067
vn -0.1453 0.7448 0.6512
vn -0.2303 0.6092 0.7588
vn -0.2407 0.7620 0.6012
vn -0.3309 0.1233 0.9355
vn -0.2248 -0.3527 0.9083
vn -0.0462 -0.6819 0.7300
vn 0.3157 -0.7037 0.6364
vn 0.4846 -0.5977 0.6387
vn -0.2397 -0.8842 -0.4008
vn -0.3083 -0.9146 -0.2615
vn -0.4200 -0.8009 -0.4267
vn -0.1957 -0.9804 0.0196
vn -0.2499 -0.9658 0.0683
vn 0.2097 -0.8168 -0.5375
vn 0.0390 -0.9844 -0.1712
vn 0.0273 -0.8530 -0.5212
vn -0.0949 -0.9447 0.3138
vn 0.1493 -0.9886 0.0199
vn 0.0396 -0.9702 0.2391
vn 0.3706 -0.9101 -0.1852
vn 0.1422 -0.9066 0.3971
vn 0.2485 -0.9238 0.2913
vn 0.6219 -0.7615 -0.1827
vn 0.5078 -0.8127 -0.2856
vn 0.7821 -0.6202 -0.0602
vn 0.6457 -0.7634 0.0167
vn 0.2958 -0.8057 0.5132
vn 0.7909 -0.5945 0.1449
vn 0.8405 -0.4906 0.2299
vn 0.9388 -0.3158 -0.1373
vn 0.1673 -0.5314 -0.8304
vn -0.1026 -0.7531 -0.6498
vn 0.1564 -0.2687 -0.9504
vn 0.4451 -0.7162 -0.5375
vn 0.8618 -0.4809 0.1611
vn 0.3765 -0.7364 0.5620
vn 0.0533 -0.9258 0.3741
vn 0.0917 -0.8705 0.4835
vn -0.3598 0.8931 0.2699
vn -0.1055 0.9798 0.1697
vn -0.5995 0.7890 -0.1343
vn -0.4948 0.8185 0.2917
vn -0.2338 0.7959 0.5584
vn -0.2444 0.7515 0.6127
vn -0.3390 0.7813 0.5240
vn 0.2297 0.9337 0.2748
vn -0.0742 0.8599 0.5051
vn 0.4165 0.7658 0.4899
vn 0.2771 0.8594 -0.4295
vn -0.2413 0.7646 0.5976
vn 0.1262 0.7216 0.6807
vn 0.3360 0.7191 0.6082
vn 0.1592 0.6752 -0.7202
vn 0.8688 0.4432 -0.2208
vn 0.1247 -0.8032 0.5825
vn 0.1872 0.9762 -0.1091
vn 0.0954 0.7332 0.6733
vn -0.1582 0.7461 0.6467
usemtl Rock_02_LP
s 1
f 3/1/1 71/2/2 76/3/3
f 3/1/1 75/4/4 44/5/5
f 85/6/6 77/7/7 74/8/8
f 76/3/3 79/9/9 75/4/4
f 80/10/10 86/11/11 79/9/9
f 77/7/7 80/10/10 76/3/3
f 50/12/12 82/13/13 78/14/14
f 86/15/11 83/16/15 1/17/16
f 82/18/13 52/19/17 81/20/18
f 72/21/19 71/2/2 47/22/20
f 73/23/21 74/8/8 72/21/19
f 48/24/22 49/25/23 73/23/21
f 156/26/24 50/12/12 78/14/14
f 51/27/25 16/28/26 84/29/27
f 84/29/27 52/19/17 82/18/13
f 84/29/27 87/30/28 52/19/17
f 81/20/18 52/19/17 83/16/15
f 83/16/15 57/31/29 1/17/16
f 86/15/11 1/17/16 42/32/30
f 75/4/4 43/33/31 44/5/5
f 95/34/32 18/35/33 17/36/34
f 18/35/33 89/37/35 17/36/34
f 17/36/34 89/37/35 88/38/36
f 19/39/37 18/35/33 87/30/28
f 88/38/36 89/37/35 91/40/38
f 90/41/39 92/42/40 89/37/35
f 6/43/41 7/44/42 20/45/43
f 87/30/28 18/35/33 52/19/17
f 4/46/44 93/47/45 19/39/37
f 4/46/44 5/48/46 93/47/45
f 94/49/47 112/50/48 58/51/49
f 7/44/42 6/43/41 96/52/50
f 88/38/36 91/40/38 54/53/51
f 17/36/34 88/38/36 55/54/52
f 56/55/53 17/36/34 55/54/52
f 10/56/54 22/57/55 100/58/56
f 96/52/50 98/59/57 22/57/55
f 96/52/50 111/60/58 98/59/57
f 22/57/55 99/61/59 100/58/56
f 98/59/57 103/62/60 102/63/61
f 100/58/56 104/64/62 9/65/63
f 99/61/59 102/63/61 108/66/64
f 113/67/65 106/68/66 101/69/67
f 8/70/68 23/71/69 107/72/70
f 104/64/62 23/71/69 8/70/68
f 104/64/62 108/66/64 23/71/69
f 102/63/61 105/73/71 108/66/64
f 105/73/71 109/74/72 108/66/64
f 103/62/60 106/68/66 109/74/72
f 106/75/66 114/76/73 109/77/72
f 110/78/74 24/79/75 107/72/70
f 108/66/64 110/78/74 23/71/69
f 114/76/73 25/80/76 109/77/72
f 25/80/76 12/81/77 109/77/72
f 7/44/42 96/52/50 22/57/55
f 6/43/41 111/60/58 96/52/50
f 158/82/78 113/67/65 112/50/48
f 12/81/77 13/83/79 109/77/72
f 8/70/68 60/84/80 61/85/81
f 8/70/68 107/72/70 60/84/80
f 10/56/54 100/58/56 32/86/82
f 27/87/83 26/88/84 115/89/85
f 26/88/84 116/90/86 115/89/85
f 27/87/83 118/91/87 26/88/84
f 123/92/88 117/93/89 27/87/83
f 118/91/87 28/94/90 26/88/84
f 26/88/84 28/94/90 116/90/86
f 117/93/89 118/91/87 27/87/83
f 117/93/89 14/95/91 119/96/92
f 120/97/93 29/98/94 118/91/87
f 119/96/92 68/99/95 121/100/96
f 122/101/97 115/89/85 65/102/98
f 13/83/79 115/89/85 62/103/99
f 13/83/79 27/87/83 115/89/85
f 12/81/77 123/92/88 13/83/79
f 12/81/77 66/104/100 123/92/88
f 68/105/95 69/106/101 124/107/102
f 70/108/103 48/24/22 124/107/102
f 125/109/104 72/21/19 47/22/20
f 46/110/105 3/1/1 45/111/106
f 28/94/90 63/112/107 64/113/108
f 126/114/109 144/115/110 145/116/111
f 144/115/110 128/117/112 143/118/113
f 144/115/110 126/114/109 128/117/112
f 33/119/114 34/120/115 31/121/116
f 128/122/112 35/123/117 143/124/113
f 129/125/118 132/126/119 34/127/115
f 33/119/114 130/128/120 34/120/115
f 129/125/118 36/129/121 132/126/119
f 130/130/120 134/131/122 129/125/118
f 130/130/120 133/132/123 134/131/122
f 131/133/124 137/134/125 133/132/123
f 131/133/124 61/135/81 137/134/125
f 133/132/123 137/134/125 136/136/126
f 134/131/122 37/137/127 36/129/121
f 136/136/126 138/138/128 37/137/127
f 37/137/127 138/138/128 141/139/129
f 138/138/128 139/140/130 141/139/129
f 56/55/53 145/116/111 57/31/29
f 140/141/131 31/121/116 30/142/132
f 10/56/54 32/86/82 53/143/133
f 32/86/82 100/58/56 9/65/63
f 127/144/134 8/70/68 131/145/124
f 131/145/124 8/70/68 61/85/81
f 61/85/81 60/84/80 59/146/135
f 141/139/129 65/102/98 115/89/85
f 38/147/136 64/113/108 63/112/107
f 135/148/137 142/149/138 44/5/5
f 35/123/117 43/33/31 143/124/113
f 143/124/113 43/33/31 42/150/30
f 1/17/16 144/115/110 42/32/30
f 4/46/44 39/151/139 147/152/140
f 155/153/141 156/154/24 148/155/142
f 39/156/139 153/157/143 152/158/144
f 148/159/142 157/160/145 153/157/143
f 40/161/146 150/162/147 149/163/148
f 5/164/46 11/165/149 112/50/48
f 51/27/25 50/166/12 155/153/141
f 50/166/12 156/154/24 155/153/141
f 85/6/6 157/160/145 156/26/24
f 85/6/6 73/23/21 157/160/145
f 157/160/145 73/23/21 49/25/23
f 49/25/23 70/108/103 15/167/150
f 69/106/101 68/105/95 67/168/151
f 151/169/152 25/80/76 114/76/73
f 113/67/65 40/170/146 106/68/66
f 45/111/106 3/1/1 44/5/5
f 72/21/19 74/8/8 71/2/2
f 73/23/21 85/6/6 74/8/8
f 3/1/1 76/3/3 75/4/4
f 76/3/3 71/2/2 77/7/7
f 75/4/4 79/9/9 43/33/31
f 81/171/18 80/10/10 77/7/7
f 85/6/6 78/14/14 77/7/7
f 79/9/9 86/11/11 42/150/30
f 79/9/9 76/3/3 80/10/10
f 84/29/27 50/166/12 51/27/25
f 77/7/7 78/14/14 82/13/13
f 80/10/10 81/171/18 86/11/11
f 81/20/18 83/16/15 86/15/11
f 77/7/7 82/13/13 81/171/18
f 3/1/1 47/22/20 71/2/2
f 89/37/35 19/39/37 90/41/39
f 48/24/22 73/23/21 72/21/19
f 85/6/6 156/26/24 78/14/14
f 83/16/15 52/19/17 57/31/29
f 52/19/17 95/34/32 57/31/29
f 43/33/31 79/9/9 42/150/30
f 56/55/53 95/34/32 17/36/34
f 16/28/26 19/39/37 87/30/28
f 53/143/133 7/44/42 10/56/54
f 19/39/37 93/47/45 90/41/39
f 91/172/38 20/45/43 53/143/133
f 89/37/35 20/173/43 91/40/38
f 89/37/35 92/42/40 20/173/43
f 90/41/39 94/174/47 92/42/40
f 90/41/39 93/47/45 94/174/47
f 93/47/45 21/175/153 94/174/47
f 92/176/40 6/43/41 20/45/43
f 92/176/40 94/49/47 6/43/41
f 53/143/133 54/177/51 91/172/38
f 94/49/47 21/178/153 112/50/48
f 57/31/29 95/34/32 56/55/53
f 52/19/17 18/35/33 95/34/32
f 84/29/27 16/28/26 87/30/28
f 93/47/45 5/48/46 21/175/153
f 21/178/153 5/164/46 112/50/48
f 94/49/47 58/51/49 6/43/41
f 101/69/67 111/60/58 97/179/154
f 55/54/52 88/38/36 54/53/51
f 111/60/58 112/50/48 97/179/154
f 60/84/80 24/79/75 59/146/135
f 97/179/154 113/67/65 101/69/67
f 22/57/55 98/59/57 99/61/59
f 99/61/59 98/59/57 102/63/61
f 100/58/56 99/61/59 104/64/62
f 104/64/62 99/61/59 108/66/64
f 102/63/61 103/62/60 105/73/71
f 98/59/57 101/69/67 103/62/60
f 101/69/67 106/68/66 103/62/60
f 9/65/63 104/64/62 8/70/68
f 105/73/71 103/62/60 109/74/72
f 23/71/69 110/78/74 107/72/70
f 108/66/64 109/74/72 110/78/74
f 110/180/74 62/103/99 24/181/75
f 109/77/72 62/103/99 110/180/74
f 10/56/54 7/44/42 22/57/55
f 6/43/41 58/51/49 111/60/58
f 111/60/58 58/51/49 112/50/48
f 11/165/149 158/82/78 112/50/48
f 97/179/154 112/50/48 113/67/65
f 109/77/72 13/83/79 62/103/99
f 77/7/7 71/2/2 74/8/8
f 62/103/99 122/101/97 24/181/75
f 59/182/135 24/181/75 122/101/97
f 2/183/155 29/98/94 45/184/106
f 13/83/79 123/92/88 27/87/83
f 123/92/88 14/95/91 117/93/89
f 117/93/89 120/97/93 118/91/87
f 117/93/89 119/96/92 120/97/93
f 118/91/87 29/98/94 28/94/90
f 120/97/93 119/96/92 121/100/96
f 119/96/92 14/95/91 68/99/95
f 29/98/94 121/100/96 46/185/105
f 120/97/93 121/100/96 29/98/94
f 121/186/96 124/107/102 125/109/104
f 29/98/94 46/185/105 45/184/106
f 121/186/96 125/109/104 46/110/105
f 124/107/102 48/24/22 125/109/104
f 62/103/99 115/89/85 122/101/97
f 123/92/88 66/104/100 14/95/91
f 14/95/91 67/187/151 68/99/95
f 68/105/95 124/107/102 121/186/96
f 69/106/101 15/167/150 124/107/102
f 15/167/150 70/108/103 124/107/102
f 125/109/104 48/24/22 72/21/19
f 46/110/105 125/109/104 47/22/20
f 28/94/90 29/98/94 63/112/107
f 33/119/114 32/86/82 127/144/134
f 116/90/86 28/94/90 64/113/108
f 115/89/85 116/90/86 141/139/129
f 56/55/53 126/114/109 145/116/111
f 30/188/132 31/189/116 126/114/109
f 140/141/131 33/119/114 31/121/116
f 126/114/109 34/190/115 128/117/112
f 33/119/114 131/145/124 130/128/120
f 122/101/97 139/140/130 59/182/135
f 34/191/115 132/192/119 128/122/112
f 34/127/115 130/130/120 129/125/118
f 128/122/112 132/192/119 35/123/117
f 132/192/119 135/148/137 35/123/117
f 132/126/119 36/129/121 135/193/137
f 129/125/118 134/131/122 36/129/121
f 130/130/120 131/133/124 133/132/123
f 133/132/123 136/136/126 134/131/122
f 135/193/137 37/137/127 142/194/138
f 36/129/121 37/137/127 135/193/137
f 134/131/122 136/136/126 37/137/127
f 136/136/126 137/134/125 138/138/128
f 138/138/128 137/134/125 59/182/135
f 142/194/138 38/147/136 2/183/155
f 37/137/127 38/147/136 142/194/138
f 37/137/127 64/113/108 38/147/136
f 37/137/127 141/139/129 64/113/108
f 138/138/128 59/182/135 139/140/130
f 57/31/29 145/116/111 1/17/16
f 55/54/52 126/114/109 56/55/53
f 55/54/52 30/188/132 126/114/109
f 54/53/51 30/188/132 55/54/52
f 54/177/51 140/141/131 30/142/132
f 53/143/133 32/86/82 140/141/131
f 127/144/134 32/86/82 9/65/63
f 127/144/134 9/65/63 8/70/68
f 137/134/125 61/135/81 59/182/135
f 44/5/5 2/195/155 45/111/106
f 141/139/129 139/140/130 65/102/98
f 64/113/108 141/139/129 116/90/86
f 38/147/136 63/112/107 2/183/155
f 44/5/5 35/123/117 135/148/137
f 158/82/78 40/170/146 113/67/65
f 144/115/110 143/118/113 42/32/30
f 145/116/111 144/115/110 1/17/16
f 11/165/149 5/164/46 146/196/156
f 11/165/149 146/196/156 158/82/78
f 5/48/46 4/46/44 146/197/156
f 146/197/156 4/46/44 147/152/140
f 4/46/44 155/153/141 148/155/142
f 154/198/157 152/158/144 41/199/158
f 39/151/139 4/46/44 148/155/142
f 146/196/156 147/200/140 40/170/146
f 40/161/146 147/201/140 150/162/147
f 147/202/140 39/156/139 150/203/147
f 150/203/147 39/156/139 152/158/144
f 39/156/139 148/159/142 153/157/143
f 148/159/142 156/26/24 157/160/145
f 150/162/147 151/169/152 149/163/148
f 151/169/152 150/162/147 154/204/157
f 41/199/158 15/167/150 69/106/101
f 152/158/144 153/157/143 41/199/158
f 41/199/158 69/106/101 67/168/151
f 41/199/158 67/168/151 154/198/157
f 49/25/23 153/157/143 157/160/145
f 14/95/91 154/204/157 67/187/151
f 4/46/44 19/39/37 155/153/141
f 19/39/37 16/28/26 155/153/141
f 16/28/26 51/27/25 155/153/141
f 70/108/103 49/25/23 48/24/22
f 151/169/152 14/95/91 66/104/100
f 12/81/77 25/80/76 66/104/100
f 151/169/152 66/104/100 25/80/76
f 149/163/148 151/169/152 114/76/73
f 106/75/66 149/163/148 114/76/73
f 106/75/66 40/161/146 149/163/148
f 84/29/27 82/18/13 50/166/12
f 3/1/1 46/110/105 47/22/20
f 89/37/35 18/35/33 19/39/37
f 53/143/133 20/45/43 7/44/42
f 53/143/133 140/141/131 54/177/51
f 101/69/67 98/59/57 111/60/58
f 60/84/80 107/72/70 24/79/75
f 2/183/155 63/112/107 29/98/94
f 33/119/114 140/141/131 32/86/82
f 126/114/109 31/189/116 34/190/115
f 33/119/114 127/144/134 131/145/124
f 122/101/97 65/102/98 139/140/130
f 44/5/5 142/149/138 2/195/155
f 44/5/5 43/33/31 35/123/117
f 158/82/78 146/196/156 40/170/146
f 154/198/157 150/203/147 152/158/144
f 41/199/158 153/157/143 15/167/150
f 49/25/23 15/167/150 153/157/143
f 14/95/91 151/169/152 154/204/157
