# Blender v2.91.0 OBJ File: 'Rocks7.blend'
# www.blender.org
mtllib Rock_07_LP.mtl
o Rock_07_LP_Cube.008
v -0.688856 -0.639745 -0.553519
v -0.197964 -0.512165 -1.147057
v 0.809348 -0.477238 0.155038
v 0.463886 0.592072 0.702176
v 0.497003 -0.030103 0.937931
v -0.949695 -0.034813 -0.813721
v 0.832307 0.092904 -0.569228
v 0.773029 0.345006 -0.092326
v 0.170844 -0.596797 -0.980201
v -0.331882 -1.108861 -0.040394
v -0.159606 0.798304 -1.123497
v -0.435290 0.797630 -0.084659
v 0.538595 0.394410 -0.921331
v -0.074002 -0.864083 0.993924
v -0.525492 0.266164 0.791200
v -0.957527 -0.307393 0.363831
v -0.593515 0.618346 0.266948
v -1.132235 0.017821 -0.288576
v -0.911267 0.405314 -0.131002
v -0.878983 -0.062370 0.684277
v -0.953643 -0.564471 0.038603
v -0.497060 -0.081931 -1.268450
v -0.191392 0.598655 -1.327842
v -0.038999 -0.263048 -1.385513
v 0.277417 0.064945 -1.310440
v 0.250006 0.450405 -1.186811
v -0.522021 0.503963 -1.055786
v 0.844384 0.125295 0.224048
v 0.751465 -0.352920 0.584855
v 0.577131 -0.256969 -0.917506
v 0.531108 -0.551341 1.036864
v 0.284496 0.204660 1.022583
v 0.194645 -0.737304 1.140013
v -0.147896 0.755837 0.565173
v -0.152480 -0.368716 1.228909
v -0.200445 0.215067 1.065265
v -0.680499 -0.322342 0.968887
v 0.286365 -1.044998 -0.283528
v 0.564741 -1.116327 0.081583
v 0.214861 -1.260770 0.318135
v -0.346709 -1.055858 0.482463
v 0.548767 0.648993 -0.157556
v -0.044496 0.900359 0.077989
v 0.103900 0.606919 0.834242
vt 0.295809 0.803190
vt 0.352521 0.761716
vt 0.317014 0.864912
vt 0.316091 0.625511
vt 0.671865 0.451300
vt 0.571656 0.342400
vt 0.692184 0.375570
vt 0.232063 0.658872
vt 0.154987 0.489006
vt 0.606807 0.143760
vt 0.666663 0.069353
vt 0.699662 0.134602
vt 0.450342 0.469592
vt 0.415938 0.624100
vt 0.377447 0.505133
vt 0.346157 0.568092
vt 0.778136 0.749503
vt 0.804734 0.687022
vt 0.904204 0.697985
vt 0.220173 0.449500
vt 0.094881 0.357049
vt 0.179584 0.282472
vt 0.661796 0.673807
vt 0.778197 0.620445
vt 0.263310 0.209698
vt 0.107617 0.239064
vt 0.087198 0.136217
vt 0.642875 0.570775
vt 0.633211 0.475827
vt 0.606511 0.613311
vt 0.503360 0.529066
vt 0.606303 0.687859
vt 0.525284 0.642520
vt 0.561616 0.449764
vt 0.504156 0.423049
vt 0.594882 0.756712
vt 0.307516 0.962873
vt 0.201967 0.911871
vt 0.100178 0.809800
vt 0.220029 0.834049
vt 0.321692 0.422536
vt 0.335464 0.237441
vt 0.403462 0.375511
vt 0.894693 0.212657
vt 0.820722 0.313133
vt 0.945338 0.337284
vt 0.281381 0.136190
vt 0.844639 0.401786
vt 0.903614 0.502309
vt 0.115660 0.068953
vt 0.933299 0.877648
vt 0.862778 0.956613
vt 0.124108 0.676051
vt 0.064040 0.482886
vt 0.051669 0.717811
vt 0.171647 0.734867
vt 0.671971 0.819669
vt 0.090496 0.434053
vt 0.588157 0.245802
vt 0.699217 0.266101
vt 0.491174 0.158031
vt 0.412175 0.963107
vt 0.489220 0.066211
vt 0.770902 0.109627
vt 0.917029 0.971433
vt 0.280864 0.533836
vt 0.914559 0.804105
vt 0.725072 0.520554
vt 0.166142 0.035168
vn -0.8413 0.2203 0.4936
vn -0.8978 -0.3004 0.3219
vn -0.6947 -0.2243 0.6834
vn -0.9889 0.1069 -0.1028
vn -0.8459 -0.5309 0.0502
vn -0.7902 0.6110 0.0454
vn -0.7092 0.5171 -0.4791
vn -0.5607 -0.1825 -0.8076
vn 0.0973 -0.3696 -0.9240
vn -0.2444 -0.7142 -0.6559
vn -0.1475 0.4770 -0.8664
vn 0.5269 -0.0177 -0.8497
vn 0.5541 0.5248 -0.6461
vn 0.6267 0.7765 -0.0659
vn 0.8780 0.4783 -0.0137
vn 0.9492 0.1074 -0.2955
vn 0.9593 0.2094 0.1897
vn 0.9669 -0.2543 0.0210
vn 0.5835 0.6616 0.4708
vn 0.6697 -0.7378 -0.0847
vn 0.9361 -0.0977 0.3378
vn 0.6779 -0.2336 0.6970
vn 0.7248 0.2100 0.6562
vn 0.3509 0.3288 0.8768
vn -0.1563 -0.0680 0.9854
vn 0.0421 0.7311 0.6809
vn -0.2478 0.4364 0.8650
vn 0.2213 -0.4969 0.8391
vn -0.2838 -0.7079 0.6467
vn -0.2246 0.8699 0.4390
vn -0.5901 0.5379 0.6019
vn 0.7468 -0.3380 -0.5727
vn 0.2359 -0.8399 -0.4887
vn 0.3553 -0.6988 -0.6208
vn -0.3866 -0.8987 -0.2069
vn 0.1550 -0.9745 0.1620
vn -0.5213 -0.7808 0.3441
vn -0.0477 0.8968 -0.4398
vn -0.4580 0.8881 0.0377
vn 0.0363 0.9943 0.1000
vn -0.6332 0.7017 0.3265
vn -0.8584 -0.0500 -0.5105
vn -0.6220 -0.6606 -0.4203
vn 0.7155 0.5210 -0.4655
usemtl Rock_07_LP
s 1
f 20/1/1 16/2/2 37/3/3
f 20/1/1 18/4/4 16/2/2
f 16/5/2 18/6/4 21/7/5
f 19/8/6 27/9/7 18/4/4
f 22/10/8 24/11/9 2/12/10
f 24/13/9 23/14/11 25/15/12
f 23/14/11 26/16/13 25/15/12
f 42/17/14 8/18/15 7/19/16
f 7/20/16 28/21/17 3/22/18
f 8/18/15 4/23/19 28/24/17
f 39/25/20 29/26/21 31/27/22
f 28/24/17 4/23/19 5/28/23
f 31/29/22 32/30/24 35/31/25
f 32/30/24 44/32/26 36/33/27
f 33/34/28 35/31/25 14/35/29
f 44/32/26 34/36/30 36/33/27
f 35/37/25 36/38/27 37/3/3
f 34/39/30 15/40/31 36/38/27
f 36/38/27 15/40/31 37/3/3
f 30/41/32 38/42/33 9/43/34
f 38/44/33 10/45/35 2/12/10
f 38/44/33 40/46/36 10/45/35
f 39/25/20 40/47/36 38/42/33
f 40/46/36 41/48/37 10/45/35
f 41/48/37 14/49/29 16/5/2
f 40/47/36 31/27/22 33/50/28
f 26/51/13 11/52/38 42/17/14
f 19/8/6 12/53/39 11/54/38
f 12/53/39 43/55/40 11/54/38
f 43/55/40 17/56/41 34/39/30
f 34/36/30 4/23/19 43/57/40
f 34/36/30 44/32/26 4/23/19
f 17/56/41 15/40/31 34/39/30
f 27/9/7 11/54/38 23/58/11
f 15/40/31 19/8/6 20/1/1
f 15/40/31 17/56/41 19/8/6
f 20/1/1 19/8/6 18/4/4
f 18/6/4 6/59/42 21/7/5
f 21/7/5 6/59/42 1/60/43
f 18/6/4 27/61/7 6/59/42
f 14/62/29 37/3/3 16/2/2
f 6/59/42 22/10/8 2/12/10
f 22/10/8 23/63/11 24/11/9
f 2/12/10 24/11/9 9/64/34
f 23/65/11 11/52/38 26/51/13
f 9/43/34 24/13/9 25/15/12
f 25/15/12 30/41/32 9/43/34
f 25/15/12 26/16/13 13/66/44
f 6/59/42 2/12/10 1/60/43
f 27/61/7 23/63/11 22/10/8
f 13/67/44 42/17/14 7/19/16
f 30/41/32 7/20/16 39/25/20
f 39/25/20 7/20/16 3/22/18
f 7/19/16 8/18/15 28/24/17
f 3/22/18 28/21/17 29/26/21
f 39/25/20 3/22/18 29/26/21
f 28/24/17 5/28/23 29/68/21
f 25/15/12 7/20/16 30/41/32
f 25/15/12 13/66/44 7/20/16
f 8/18/15 42/17/14 4/23/19
f 31/29/22 29/68/21 5/28/23
f 31/29/22 5/28/23 32/30/24
f 31/29/22 35/31/25 33/34/28
f 35/31/25 32/30/24 36/33/27
f 44/32/26 32/30/24 4/23/19
f 35/37/25 37/3/3 14/62/29
f 5/28/23 4/23/19 32/30/24
f 21/7/5 1/60/43 10/45/35
f 37/3/3 15/40/31 20/1/1
f 2/12/10 9/64/34 38/44/33
f 1/60/43 2/12/10 10/45/35
f 38/42/33 30/41/32 39/25/20
f 10/45/35 41/48/37 21/7/5
f 40/46/36 14/49/29 41/48/37
f 40/47/36 39/25/20 31/27/22
f 40/47/36 33/50/28 14/69/29
f 11/52/38 43/57/40 42/17/14
f 43/55/40 12/53/39 17/56/41
f 43/57/40 4/23/19 42/17/14
f 27/9/7 19/8/6 11/54/38
f 19/8/6 17/56/41 12/53/39
f 13/67/44 26/51/13 42/17/14
f 22/10/8 6/59/42 27/61/7
f 16/5/2 21/7/5 41/48/37
